<svg xmlns="http://www.w3.org/2000/svg" width="12" height="12" fill="none" viewBox="0 0 12 12">
  <path fill="#0B120B" d="M9.203 3.517a.72.72 0 1 0 0-1.44.72.72 0 0 0 0 1.44ZM6 2.919a3.081 3.081 0 1 0 0 6.162 3.081 3.081 0 0 0 0-6.162ZM6 8a2 2 0 1 1 0-4 2 2 0 0 1 0 4Z"/>
  <path fill="#0B120B" d="M6 1.081c1.602 0 1.792.006 2.425.035.38.005.757.074 1.114.206a1.988 1.988 0 0 1 1.139 1.14c.132.356.201.733.206 1.113.029.633.035.823.035 2.425 0 1.603-.006 1.792-.035 2.425-.005.38-.074.757-.207 1.114a1.988 1.988 0 0 1-1.138 1.139 3.321 3.321 0 0 1-1.114.206c-.633.029-.823.035-2.425.035-1.602 0-1.792-.006-2.425-.035a3.321 3.321 0 0 1-1.114-.207A1.988 1.988 0 0 1 1.324 9.54a3.321 3.321 0 0 1-.207-1.114c-.029-.633-.035-.823-.035-2.425 0-1.602.006-1.792.035-2.425.005-.38.074-.757.206-1.114a1.988 1.988 0 0 1 1.14-1.138 3.321 3.321 0 0 1 1.113-.207c.633-.029.823-.035 2.425-.035ZM6 0C4.37 0 4.166.007 3.526.036A4.39 4.39 0 0 0 2.07.315 3.068 3.068 0 0 0 .315 2.07a4.404 4.404 0 0 0-.279 1.457C.007 4.167 0 4.37 0 6s.007 1.834.036 2.474c.01.498.104.99.279 1.456a3.068 3.068 0 0 0 1.755 1.755c.466.175.959.269 1.457.279.64.029.843.036 2.473.036s1.834-.007 2.474-.036a4.4 4.4 0 0 0 1.457-.279 3.068 3.068 0 0 0 1.755-1.755 4.42 4.42 0 0 0 .278-1.457C11.993 7.833 12 7.63 12 6s-.007-1.834-.036-2.474a4.403 4.403 0 0 0-.279-1.456A3.068 3.068 0 0 0 9.93.315 4.404 4.404 0 0 0 8.473.036C7.833.006 7.63 0 6 0Z"/>
</svg>
