<svg xmlns="http://www.w3.org/2000/svg" width="36" height="29" fill="none" viewBox="0 0 36 29">
  <path fill="#070707" d="M15 16.032V28a1 1 0 0 1-1 1H1a1 1 0 0 1-1-1V15.032C0 9.682 2.376-.406 14.073.012A.97.97 0 0 1 15 .99v3.065c0 .552-.45.994-.995 1.078-3.553.55-7.486 3.942-7.958 8.9-.052.55.4 1 .953 1h7a1 1 0 0 1 1 1Zm21 0V28a1 1 0 0 1-1 1H22a1 1 0 0 1-1-1V15.032C21 9.682 23.375-.406 35.073.012A.97.97 0 0 1 36 .99v3.065c0 .552-.45.994-.995 1.078-3.553.55-7.486 3.942-7.958 8.9-.052.55.4 1 .953 1h7a1 1 0 0 1 1 1Z"/>
</svg>
