<svg xmlns="http://www.w3.org/2000/svg" width="11" height="9" fill="none" viewBox="0 0 11 9">
  <path fill="#0B120B" d="M11 1.07a4.495 4.495 0 0 1-1.298.35 2.26 2.26 0 0 0 .991-1.25 4.43 4.43 0 0 1-1.43.548A2.249 2.249 0 0 0 7.616 0a2.262 2.262 0 0 0-2.254 2.271c0 .176.021.352.055.52A6.391 6.391 0 0 1 .77.416a2.267 2.267 0 0 0-.306 1.147c0 .788.398 1.483 1.004 1.892a2.262 2.262 0 0 1-1.019-.29v.029c0 1.103.775 2.018 1.807 2.228a2.377 2.377 0 0 1-1.019.043A2.26 2.26 0 0 0 3.344 7.04a4.498 4.498 0 0 1-2.798.97c-.19 0-.364-.006-.545-.027A6.35 6.35 0 0 0 3.462 9c4.146 0 6.414-3.459 6.414-6.461 0-.099 0-.197-.006-.296A4.875 4.875 0 0 0 11 1.07Z"/>
</svg>
